<?xml version="1.0" encoding="UTF-8"?>
<svg id="Layer_1" data-name="Layer 1" xmlns="http://www.w3.org/2000/svg" viewBox="0 0 451.02 500.16">
  <defs>
    <style>
      .cls-1 {
        fill: #fff;
      }
    </style>
  </defs>
  <g id="katman_2" data-name="katman 2">
    <g id="katman_1-2" data-name="katman 1-2">
      <path class="cls-1" d="m450.87,102.38c-.54-14.42-4.51-41.1-8.57-57-2.43-9.64-5.67-19.55-11.08-33.7-3-7.76-3.79-9.47-4.78-10.46-1.53-1.49-3.24-1.58-3.78-.27-.63,1.71-.36,4.15,1.08,9.55,1.62,6.13,4.6,20.1,5.68,26.41.81,5,2.25,16.49,3,23.52.63,6.76.63,27.67,0,32.81-.54,4.33-2,12.35-2.61,14.6q-.36,1.44-2.89-3.61c-1.35-2.7-3.51-6.48-4.77-8.38-6.22-9.37-26.05-28.57-39-37.76-2.07-1.44-5-3.6-6.67-4.78-3.15-2.25-5.49-3.24-7.21-2.88-1.17.27-1.53,1-1.17,2.52.54,2.08,1.44,3.34,7,8.84,3.45,3.3,6.61,6.89,9.46,10.72,6.13,8.29,15.33,22.26,17.76,27.13,2.52,5,8.2,18,10.81,24.6,1.54,4,3.34,8.47,4.06,10.1.52,1.07.94,2.18,1.26,3.33,0,1.26-7.66,13.88-11.62,19-4.19,5.46-8.74,10.64-13.61,15.5-2.5,2.3-5.11,4.47-7.84,6.49-.18.09.18-1.17.81-2.89,3.78-10.18,7.39-31.36,6.76-40.28-.28-6.78-2-13.41-5.05-19.47-2.79-5.44-6.14-10.58-10-15.32-4.69-5.5-7.49-8.83-9.29-11-2.7-3.33-8.11-9.46-9.46-10.72-1.46-1.29-3.38-1.94-5.32-1.8-1.17.09-1.26.18-1.35,1.8-.18,2.25.36,3.24,6.49,13.07,8,12.8,10.63,18.38,13.25,28.48,1.62,6.22,1.62,8.92.09,13.43-1.62,5-6.85,15.14-12.8,25-1.89,3.16-4.15,7-5.05,8.56q-1.62,2.89-2-7.39c-.72-17-2.52-26.13-6.49-32.35-1.44-2.26-2.52-2.89-3.87-2.17-1.54.82-1.63,1.36-1.72,13.61,0,15.69-.45,18.75-3.78,29.84-2.96,9.05-6.42,17.92-10.37,26.58q-1.26,2.8-3.69,1.44c-12.62-7-25-15.77-31.82-22.53-6-6-8.74-9.73-13.7-18.74-1.71-3.16-3.33-5.95-3.6-6.22-.72-.72-3.7-.63-4.42.09-.45.45-.54,1.26-.54,4.05-.06,2.34.34,4.66,1.17,6.85,2.47,7.28,5.86,14.22,10.1,20.64,6.58,9.38,13.61,17.31,19.65,22.26,1.8,1.54,2.88,2.62,2.61,2.71-.72.36-11.45,3.33-18.39,5.13-24.78,6.22-36.41,16-36.41,30.56.02,1.68.17,3.35.45,5-14.6-1.53-29.56-.72-44.25-.63.49-3.2.42-6.46-.18-9.64-2.43-11.63-14.15-19.92-35.87-25.33-6.94-1.71-17.66-4.68-18.38-5.13-.27-.18.81-1.26,2.61-2.71,6-5,13.07-12.88,19.65-22.26,4.22-6.43,7.61-13.36,10.09-20.64.78-2.2,1.18-4.52,1.17-6.85,0-2.79-.09-3.6-.54-4.05-.72-.72-3.69-.81-4.41-.09-.27.27-1.9,3.06-3.61,6.22-5,9-7.66,12.79-13.7,18.74-6.85,6.85-19.2,15.5-31.81,22.53q-2.44,1.36-3.7-1.44c-3.94-8.69-7.4-17.59-10.37-26.65-3.43-11-3.79-14.14-3.79-29.83,0-12.16-.09-12.7-1.71-13.61-1.35-.72-2.43-.09-3.88,2.17-4,6.22-5.85,15.23-6.48,32.35q-.46,10.28-2,7.39c-.9-1.53-3.15-5.4-5-8.56-6-9.91-11.18-20.1-12.8-25-1.53-4.51-1.44-7.12.09-13.43,2.58-10.03,5.23-15.7,13.23-28.41,6.12-9.74,6.67-10.73,6.49-13.07-.09-1.62-.18-1.71-1.36-1.8-1.94-.14-3.86.51-5.32,1.8-1.36,1.26-6.76,7.39-9.47,10.72-1.8,2.17-4.59,5.5-9.28,11-3.86,4.74-7.21,9.88-10,15.32-3.04,6.06-4.74,12.7-5,19.47-.63,8.92,3,30.19,6.76,40.28.63,1.72,1,3.07.81,2.89-2.73-2.02-5.35-4.19-7.84-6.49-4.88-4.85-9.43-10.03-13.61-15.5-4-5.23-11.63-17.76-11.63-19,.32-1.15.74-2.26,1.27-3.33.72-1.63,2.52-6.13,4-10.1,2.61-6.58,8.29-19.55,10.82-24.6,2.43-4.87,11.53-18.84,17.75-27.13,2.88-3.81,6.04-7.39,9.46-10.72,5.68-5.61,6.67-6.81,7.15-8.81.91-3.6-3.06-3.42-8.38.36-1.62,1.18-4.68,3.34-6.67,4.78-8.96,6.71-17.42,14.06-25.32,22-10.4,10.58-14.18,15.53-18.51,24.09q-2.52,5-2.88,3.61c-.63-2.25-2.08-10.27-2.62-14.6-.63-5.14-.63-26,0-32.81.63-7,2.08-18.47,3-23.52,1.08-6.31,4-20.28,5.68-26.41,1.42-5.4,1.7-7.93,1.06-9.5-.54-1.35-2.17-1.26-3.79.27-1,1-1.8,2.7-4.77,10.46-5.41,14.15-8.66,24-11.09,33.7C4.71,61.15.71,87.92.15,102.38c-.81,21.18,1.62,34.43,9.37,50.56,5.36,10.91,12.02,21.14,19.83,30.46,9.37,10.91,13.79,15.33,20.82,20.64,10.24,7.66,21.34,14.1,33.07,19.2,8.39,3.7,26.14,9.19,38.22,12,7.21,1.62,40.55,10,43.71,10.9,2.25.63,2.52.81,4.87,3.61,1.35,1.62,3.69,4.68,5.13,6.76.45.63.9,1.26,1.35,1.8-.63-.09-2.61-.72-5-1.44-2.89-.81-8.38-2.44-12.35-3.52s-14-4.23-22.26-7c-17.85-6-21.45-6.94-25.33-7-1.63-.2-3.29.08-4.77.81-6.31,3.07-6.4,12.53-.36,24.25,2.69,4.59,6.37,8.54,10.77,11.54,5.41,3.7,15.14,7.57,22.8,9.2,6.58,1.35,15.5.72,25.42-1.81,1.71-.51,3.46-.87,5.23-1.08,1.53.27,5.49,18.48,5.85,26.68.18,4.69.09,5.14-1.8,14.69-1.71,8.47-2.07,10.55-2.07,14.51,0,5.59.45,7.66,2.79,12.71q1.72,3.78-.18,6c-13.61,15.77-19.46,25.95-23.16,40.73-3.42,13.85-2.98,28.38,1.26,42,5,15.68,16.13,29.74,34.07,43.08,9.91,7.39,23.34,14.6,31.27,16.77,4.06,1.17,11.27.9,15.5-.54s15.33-6.94,20.64-10.19c18.12-11.35,32.9-26.5,39.57-40.83,7-15,8.65-33.52,4.5-50.2-3.69-14.78-9.55-25-23.16-40.73q-1.89-2.26-.18-6c2.35-5.05,2.8-7.12,2.8-12.71,0-4-.36-6-2.08-14.51-2-9.55-2-10-1.8-14.69.36-8.11,4.33-26.32,5.86-26.68,1.77.21,3.52.58,5.23,1.08,9.82,2.53,18.74,3.16,25.41,1.81,7.57-1.63,17.31-5.5,22.8-9.2,4.42-3.07,8.11-7.07,10.82-11.71,6-11.72,5.95-21.18-.36-24.25-1.48-.73-3.14-1.01-4.78-.81-3.87.09-7.48,1.08-25.32,7-8.3,2.8-18.3,5.95-22.26,7s-9.47,2.71-12.35,3.52c-2.44.72-4.51,1.26-5.05,1.44.45-.54.9-1.17,1.35-1.8,1.53-2.08,3.88-5.14,5.14-6.76,2.34-2.8,2.52-3,4.87-3.61,3.24-.9,36.59-9.28,43.71-10.9,12.16-2.8,29.83-8.29,38.21-12,11.75-5.06,22.85-11.51,33.08-19.2,7-5.31,11.53-9.73,20.82-20.63,7.8-9.29,14.46-19.49,19.82-30.38,7.75-16.14,10.19-29.39,9.38-50.57Z"/>
    </g>
  </g>
</svg>