<svg xmlns="http://www.w3.org/2000/svg" viewBox="0 0 451.02 500.26"><defs><style>.cls-1{fill:#010101;}</style></defs><g id="katman_2" data-name="katman 2"><g id="katman_1-2" data-name="katman 1"><path class="cls-1" d="M450.87,102.43c-.54-14.42-4.51-41.1-8.57-57-2.43-9.64-5.67-19.55-11.08-33.7-3-7.76-3.79-9.47-4.78-10.46C424.91-.22,423.2-.31,422.66,1c-.63,1.71-.36,4.15,1.08,9.55,1.62,6.13,4.6,20.1,5.68,26.41.81,5,2.25,16.49,3,23.52.63,6.76.63,27.67,0,32.81-.54,4.33-2,12.35-2.61,14.6-.36,1.44-.36,1.44-2.89-3.61-1.35-2.7-3.51-6.48-4.77-8.38-6.22-9.37-26.05-28.57-39-37.76-2.07-1.44-5-3.6-6.67-4.78-3.15-2.25-5.49-3.24-7.21-2.88-1.17.27-1.53,1-1.17,2.52.54,2.08,1.44,3.34,7,8.84a86.06,86.06,0,0,1,9.46,10.72c6.13,8.29,15.33,22.26,17.76,27.13,2.52,5,8.2,18,10.81,24.6,1.54,4,3.34,8.47,4.06,10.1a19.44,19.44,0,0,1,1.26,3.33c0,1.26-7.66,13.88-11.62,19a155.56,155.56,0,0,1-13.61,15.5,95.09,95.09,0,0,1-7.84,6.49c-.18.09.18-1.17.81-2.89,3.78-10.18,7.39-31.36,6.76-40.28a47.65,47.65,0,0,0-5.05-19.47,87.87,87.87,0,0,0-10-15.32c-4.69-5.5-7.49-8.83-9.29-11-2.7-3.33-8.11-9.46-9.46-10.72a7.25,7.25,0,0,0-5.32-1.8c-1.17.09-1.26.18-1.35,1.8-.18,2.25.36,3.24,6.49,13.07,8,12.8,10.63,18.38,13.25,28.48,1.62,6.22,1.62,8.92.09,13.43-1.62,5-6.85,15.14-12.8,25-1.89,3.16-4.15,7-5.05,8.56-1.62,2.89-1.62,2.89-2-7.39-.72-17-2.52-26.13-6.49-32.35-1.44-2.26-2.52-2.89-3.87-2.17-1.54.82-1.63,1.36-1.72,13.61,0,15.69-.45,18.75-3.78,29.84a256.55,256.55,0,0,1-10.37,26.58c-1.26,2.8-1.26,2.8-3.69,1.44-12.62-7-25-15.77-31.82-22.53-6-6-8.74-9.73-13.7-18.74-1.71-3.16-3.33-5.95-3.6-6.22-.72-.72-3.7-.63-4.42.09-.45.45-.54,1.26-.54,4.05a18,18,0,0,0,1.17,6.85,89.89,89.89,0,0,0,10.1,20.64c6.58,9.38,13.61,17.31,19.65,22.26,1.8,1.54,2.88,2.62,2.61,2.71-.72.36-11.45,3.33-18.39,5.13-24.78,6.22-36.41,16-36.41,30.56a32.62,32.62,0,0,0,.45,5c-14.6-1.53-29.56-.72-44.25-.63a28.65,28.65,0,0,0-.18-9.64c-2.43-11.63-14.15-19.92-35.87-25.33-6.94-1.71-17.66-4.68-18.38-5.13-.27-.18.81-1.26,2.61-2.71,6-5,13.07-12.88,19.65-22.26a91.72,91.72,0,0,0,10.09-20.64,20.26,20.26,0,0,0,1.17-6.85c0-2.79-.09-3.6-.54-4.05-.72-.72-3.69-.81-4.41-.09-.27.27-1.9,3.06-3.61,6.22-5,9-7.66,12.79-13.7,18.74-6.85,6.85-19.2,15.5-31.81,22.53-2.44,1.36-2.44,1.36-3.7-1.44A263.74,263.74,0,0,1,114.34,169c-3.43-11-3.79-14.14-3.79-29.83,0-12.16-.09-12.7-1.71-13.61-1.35-.72-2.43-.09-3.88,2.17-4,6.22-5.85,15.23-6.48,32.35-.46,10.28-.46,10.28-2,7.39-.9-1.53-3.15-5.4-5-8.56-6-9.91-11.18-20.1-12.8-25-1.53-4.51-1.44-7.12.09-13.43C81.35,110.45,84,104.78,92,92.07c6.12-9.74,6.67-10.73,6.49-13.07-.09-1.62-.18-1.71-1.36-1.8A7.23,7.23,0,0,0,91.81,79c-1.36,1.26-6.76,7.39-9.47,10.72-1.8,2.17-4.59,5.5-9.28,11a87.5,87.5,0,0,0-10,15.32,47.41,47.41,0,0,0-5,19.47c-.63,8.92,3,30.19,6.76,40.28.63,1.72,1,3.07.81,2.89a93.44,93.44,0,0,1-7.84-6.49,153.05,153.05,0,0,1-13.61-15.5c-4-5.23-11.63-17.76-11.63-19a19,19,0,0,1,1.27-3.33c.72-1.63,2.52-6.13,4-10.1,2.61-6.58,8.29-19.55,10.82-24.6,2.43-4.87,11.53-18.84,17.75-27.13a94,94,0,0,1,9.46-10.72C81.53,56.2,82.52,55,83,53c.91-3.6-3.06-3.42-8.38.36-1.62,1.18-4.68,3.34-6.67,4.78a231.26,231.26,0,0,0-25.32,22C32.23,90.72,28.45,95.67,24.12,104.23c-2.52,5-2.52,5-2.88,3.61-.63-2.25-2.08-10.27-2.62-14.6-.63-5.14-.63-26,0-32.81.63-7,2.08-18.47,3-23.52,1.08-6.31,4-20.28,5.68-26.41C28.72,5.1,29,2.57,28.36,1c-.54-1.35-2.17-1.26-3.79.27-1,1-1.8,2.7-4.77,10.46-5.41,14.15-8.66,24-11.09,33.7-4,15.77-8,42.54-8.56,57-.81,21.18,1.62,34.43,9.37,50.56a151.05,151.05,0,0,0,19.83,30.46c9.37,10.91,13.79,15.33,20.82,20.64a165.22,165.22,0,0,0,33.07,19.2c8.39,3.7,26.14,9.19,38.22,12,7.21,1.62,40.55,10,43.71,10.9,2.25.63,2.52.81,4.87,3.61,1.35,1.62,3.69,4.68,5.13,6.76.45.63.9,1.26,1.35,1.8-.63-.09-2.61-.72-5-1.44-2.89-.81-8.38-2.44-12.35-3.52s-14-4.23-22.26-7c-17.85-6-21.45-6.94-25.33-7a8.44,8.44,0,0,0-4.77.81c-6.31,3.07-6.4,12.53-.36,24.25A36.06,36.06,0,0,0,117.22,276c5.41,3.7,15.14,7.57,22.8,9.2,6.58,1.35,15.5.72,25.42-1.81a31.92,31.92,0,0,1,5.23-1.08c1.53.27,5.49,18.48,5.85,26.68.18,4.69.09,5.14-1.8,14.69-1.71,8.47-2.07,10.55-2.07,14.51,0,5.59.45,7.66,2.79,12.71,1.72,3.78,1.72,3.78-.18,6-13.61,15.77-19.46,25.95-23.16,40.73a78.27,78.27,0,0,0,1.26,42c5,15.68,16.13,29.74,34.07,43.08,9.91,7.39,23.34,14.6,31.27,16.77,4.06,1.17,11.27.9,15.5-.54s15.33-6.94,20.64-10.19c18.12-11.35,32.9-26.5,39.57-40.83,7-15,8.65-33.52,4.5-50.2-3.69-14.78-9.55-25-23.16-40.73-1.89-2.26-1.89-2.26-.18-6,2.35-5.05,2.8-7.12,2.8-12.71,0-4-.36-6-2.08-14.51-2-9.55-2-10-1.8-14.69.36-8.11,4.33-26.32,5.86-26.68a32.13,32.13,0,0,1,5.23,1.08c9.82,2.53,18.74,3.16,25.41,1.81,7.57-1.63,17.31-5.5,22.8-9.2a36.91,36.91,0,0,0,10.82-11.71c6-11.72,5.95-21.18-.36-24.25a8.48,8.48,0,0,0-4.78-.81c-3.87.09-7.48,1.08-25.32,7-8.3,2.8-18.3,5.95-22.26,7s-9.47,2.71-12.35,3.52c-2.44.72-4.51,1.26-5.05,1.44.45-.54.9-1.17,1.35-1.8,1.53-2.08,3.88-5.14,5.14-6.76,2.34-2.8,2.52-3,4.87-3.61,3.24-.9,36.59-9.28,43.71-10.9,12.16-2.8,29.83-8.29,38.21-12a161.09,161.09,0,0,0,33.08-19.2c7-5.31,11.53-9.73,20.82-20.63A150.93,150.93,0,0,0,441.49,153C449.24,136.86,451.68,123.61,450.87,102.43Z"/></g></g></svg>