<?xml version="1.0" standalone="no"?>
<!DOCTYPE svg PUBLIC "-//W3C//DTD SVG 20010904//EN"
 "http://www.w3.org/TR/2001/REC-SVG-20010904/DTD/svg10.dtd">
<svg version="1.0" xmlns="http://www.w3.org/2000/svg"
 width="157.000000pt" height="157.000000pt" viewBox="0 0 157.000000 157.000000"
 preserveAspectRatio="xMidYMid meet">

<g transform="translate(0.000000,157.000000) scale(0.100000,-0.100000)"
fill="#000000" stroke="none">
<path d="M387 1512 c-22 -5 -18 -34 15 -97 50 -98 91 -120 223 -115 209 7 228
5 287 -25 31 -15 62 -25 70 -22 49 18 9 116 -65 161 -40 25 -50 27 -58 15 -15
-24 -10 -33 36 -61 59 -36 58 -53 -2 -27 -26 11 -83 25 -128 30 -107 14 -148
32 -172 77 -14 26 -25 36 -39 34 -27 -5 -27 -5 -8 -52 10 -25 29 -50 47 -61
26 -15 28 -19 14 -25 -56 -21 -143 36 -172 113 -21 57 -24 61 -48 55z"/>
<path d="M695 1499 c-4 -6 -4 -26 -1 -45 6 -30 11 -34 36 -34 17 0 30 2 30 4
0 1 -5 18 -12 37 -15 45 -39 62 -53 38z"/>
<path d="M1043 1441 c-10 -15 -9 -22 2 -31 20 -17 20 -54 1 -47 -9 4 -13 1
-11 -6 2 -7 6 -24 9 -39 5 -21 12 -28 30 -28 40 0 50 82 16 138 -23 37 -31 39
-47 13z"/>
<path d="M734 1236 c-15 -12 -17 -19 -8 -33 17 -29 88 -63 143 -70 l51 -6 0
-66 c0 -95 -28 -147 -98 -185 -46 -24 -73 -30 -195 -41 -204 -19 -306 -61
-367 -153 -14 -20 -29 -40 -34 -44 -13 -9 33 -47 57 -48 15 0 17 -11 17 -93 0
-86 -2 -97 -29 -139 l-29 -46 9 -103 c4 -57 8 -114 9 -126 0 -17 6 -23 24 -23
23 0 24 2 28 101 l4 101 44 36 c75 60 119 113 151 179 29 57 31 67 26 140 -3
43 -7 89 -9 103 -2 19 2 26 19 28 17 3 26 -4 34 -25 18 -42 14 -191 -5 -235
-9 -21 -13 -38 -9 -39 20 -2 113 2 160 7 49 6 52 7 48 33 -2 14 -6 54 -9 89
l-6 62 29 0 28 0 12 -117 c6 -65 16 -181 21 -258 16 -201 16 -205 45 -205 l24
0 3 186 3 185 42 35 c78 65 132 194 153 364 16 133 14 170 -9 170 -11 0 -23 5
-26 10 -4 6 31 10 98 10 101 0 104 1 115 25 10 22 9 25 -8 25 -22 0 -28 35 -7
43 6 2 -43 32 -111 66 l-122 61 -39 -19 -38 -20 -59 24 c-67 28 -150 33 -180
11z"/>
<path d="M1063 484 l-41 -61 69 -29 c38 -16 69 -32 69 -36 0 -3 -13 -37 -29
-74 -29 -68 -28 -83 6 -84 10 0 103 170 103 190 0 4 -29 32 -64 60 -36 29 -66
62 -68 74 -2 17 -11 9 -45 -40z"/>
<path d="M477 339 c-33 -36 -46 -57 -42 -73 2 -11 7 -48 10 -81 12 -115 15
-125 41 -125 24 0 24 1 24 103 l0 103 45 43 c25 24 50 52 56 62 9 17 6 19 -39
19 -45 0 -51 -3 -95 -51z"/>
</g>
</svg>
